<svg fill="none" height="128" viewBox="0 0 128 128" width="128" xmlns="http://www.w3.org/2000/svg"><path d="m64.0001 34c-7.1782-8.6223-15.1527-11.027-25.4979-13.799-1.3365 4.9879-3.1595 10.0426-3.7693 15.1913-4.746.7637-9.4001 2.366-14.0343 3.6077 2.7345 10.2053 5.2419 17.57 13.3015 25-8.4361 7.4124-10.9874 14.0088-13.7991 24.5023 4.944 1.3248 9.9483 3.1212 15.0471 3.7519.6307 5.0988 2.4271 10.1028 3.7519 15.0468 10.1478-2.719 17.7728-5.076 25.0001-13.301 7.2344 7.847 14.5655 10.141 24.5021 12.804 1.2417-4.635 2.844-9.2887 3.6078-14.0347 5.1487-.6097 10.203-2.4328 15.191-3.7693-2.702-10.0843-4.896-18.0024-13.3009-25 8.0319-7.0096 10.1729-15.6811 12.8039-25.4977-4.678-1.2532-9.3794-2.8829-14.1742-3.6298-.7469-4.7948-2.3766-9.4967-3.6298-14.1738-10.1399 2.717-17.8012 5.0531-24.9999 13.3013z" fill="#fff"/><path clip-rule="evenodd" d="m39.0198 18.2692c-.5124-.1373-1.0583-.0654-1.5177.1998-.4593.2652-.7945.7021-.9318 1.2144-.3386 1.2638-.7223 2.5707-1.1151 3.9086-.9505 3.2375-1.9544 6.6568-2.5021 10.0861-3.0082.585-6.0093 1.4558-8.8882 2.2911-1.3242.3843-2.6226.761-3.884 1.099-.5123.1373-.9492.4725-1.2144.9318-.2652.4594-.3371 1.0053-.1998 1.5177 2.581 9.6325 5.0472 17.1071 12.3112 24.4425-3.5053 3.3313-5.9621 6.601-7.8568 10.2048-2.1531 4.0952-3.5397 8.5487-4.952 13.8197-.1373.5124-.0654 1.0583.1998 1.5176.2652.4594.702.7946 1.2144.9319 1.2637.3386 2.57.7217 3.9068 1.1138 3.1793.9324 6.5311 1.9154 9.8933 2.4708.5554 3.3622 1.5384 6.7142 2.4709 9.8932.392 1.337.7751 2.643 1.1137 3.907.2859 1.067 1.3826 1.7 2.4495 1.414 9.5372-2.555 17.2872-4.888 24.5161-12.3228 7.1768 7.0578 14.6197 9.3248 23.9509 11.8248.5124.138 1.0583.066 1.5176-.199.4594-.266.7946-.702.9319-1.215.338-1.261.7148-2.56 1.099-3.884.8353-2.879 1.7061-5.8799 2.2911-8.888 3.4293-.5477 6.8489-1.5515 10.0859-2.502 1.338-.3928 2.645-.7765 3.909-1.1151.512-.1373.949-.4725 1.214-.9319.265-.4593.337-1.0052.2-1.5176-2.518-9.3963-4.701-17.4377-12.2585-24.523 6.9495-6.93 9.1735-15.255 11.4985-23.958l.262-.9814c.286-1.0669-.347-2.1636-1.414-2.4495-1.261-.338-2.562-.7161-3.888-1.1015-2.935-.8533-6.0008-1.7445-9.0732-2.3265-.5821-3.0726-1.4732-6.138-2.3265-9.0732-.3856-1.3264-.7634-2.6263-1.1015-3.8882-.1373-.5124-.4725-.9492-.9319-1.2144s-1.0053-.3371-1.5176-.1998c-9.4896 2.5427-17.2569 4.8502-24.4487 12.2448-7.2335-7.7686-15.325-10.1464-25.0138-12.7425zm.1874 6.7569c.2301-.784.4623-1.575.6908-2.3755 9.113 2.4964 15.9088 4.9189 22.102 12.0833v13.3899c-2.9214.3643-5.5982 1.5162-7.8113 3.2365l-6.7744-6.7745c-.7811-.7811-2.0474-.7811-2.8284 0-.7811.781-.7811 2.0474-.0001 2.8284l6.7745 6.7745c-1.7203 2.213-2.8722 4.8899-3.2365 7.8113h-13.333c-6.7079-6.3978-9.1882-12.7563-11.6394-21.603.7683-.2178 1.5278-.4383 2.2812-.657 3.2468-.9426 6.3797-1.852 9.618-2.3731.8823-.142 1.5633-.852 1.6684-1.7394.4218-3.5623 1.4337-7.0094 2.4882-10.6014zm34.6041 26.3342c-2.213-1.7203-4.8899-2.8722-7.8113-3.2365v-13.3633c6.1889-6.8298 12.7286-9.1777 21.6025-11.6116.2193.7727.4414 1.5363.6617 2.2937l.0011.004c.9561 3.2875 1.8779 6.457 2.3883 9.7337.1339.8599.8085 1.5345 1.6683 1.6684 3.2767.5104 6.4462 1.4321 9.7341 2.3882.76.2211 1.526.4441 2.302.6642-2.366 8.8009-4.5421 16.0744-11.1214 22.0989h-13.3604c-.3643-2.9214-1.5162-5.5982-3.2365-7.8113l6.7745-6.7744c.7811-.7811.7811-2.0474 0-2.8285-.781-.781-2.0474-.781-2.8284 0zm2.1887 12.66-.0084-.0203h.0084c0-6.5374-5.4681-12-12-12-6.6274 0-12 5.3726-12 12 0 6.5938 5.4062 12 12 12 6.5861 0 11.9891-5.3939 12-11.9797zm-41.2384 1.9797h13.3622c.3643 2.9214 1.5162 5.5983 3.2365 7.8113l-6.7744 6.7744c-.781.7811-.781 2.0474 0 2.8285.7811.781 2.0474.781 2.8284 0l6.7744-6.7745c2.2131 1.7203 4.8899 2.8722 7.8113 3.2365v13.3596c-6.215 6.8152-12.733 9.1792-21.6042 11.6152-.2276-.797-.4586-1.585-.6877-2.366-1.0406-3.5484-2.0396-6.955-2.4752-10.4763-.1125-.91-.8294-1.6268-1.7393-1.7394-3.5213-.4355-6.9279-1.4346-10.476-2.4751l-.0049-.0015-.0055-.0016c-.7759-.2275-1.5595-.4573-2.3516-.6833 1.2113-4.3297 2.414-7.8631 4.106-11.0813 1.8271-3.4752 4.2614-6.649 8-10.0265zm31.2384 27.2083v-13.3321c2.9214-.3643 5.5982-1.5162 7.8112-3.2365l6.7745 6.7745c.7811.7811 2.0474.7811 2.8285 0 .781-.781.781-2.0474 0-2.8284l-6.7745-6.7745c1.7203-2.213 2.8722-4.8899 3.2365-7.8113h13.3892c6.9316 6.0092 9.1686 12.7039 11.5876 21.6036-.801.2287-1.592.4611-2.377.6914-3.5919 1.0544-7.039 2.0663-10.6013 2.4882-.8874.1051-1.5974.7861-1.7394 1.6684-.5211 3.2381-1.4306 6.3712-2.3731 9.6174l-.0013.005-.0015.005c-.2179.751-.4378 1.508-.6548 2.274-8.6285-2.373-14.9066-4.6664-21.1046-11.1447z" fill="#103" fill-rule="evenodd"/><g fill="#b3f"><path d="m62.5859 8.58579c.781-.78105 2.0473-.78105 2.8284 0 4.0301 4.03011 8.0227 8.75351 11.1238 13.98721-3.727 1.5622-7.2033 3.5778-10.5381 6.5532v-7.1262c0-1.1046-.8954-2-2-2s-2 .8954-2 2v6.9864c-3.2626-3.0063-6.7055-5.0655-10.3918-6.6585 3.0798-5.1361 7.0106-9.775 10.9777-13.74211z"/><path d="m22.6407 51.422c-5.2606 3.1066-10.0074 7.1163-14.05491 11.1638-.37508.3751-.58579.8838-.58579 1.4142s.21071 1.0391.58579 1.4142c3.92861 3.9287 8.51611 7.8217 13.59291 10.8879.3277-.7244.6738-1.436 1.0424-2.1371 1.5072-2.8667 3.37-5.522 5.8333-8.165h-7.0544c-1.1046 0-2-.8954-2-2s.8954-2 2-2h7.2517c-2.9672-3.3931-5.0114-6.8536-6.611-10.578z"/><path d="m62 98.8583c-3.3418 2.9747-6.8162 4.9937-10.5429 6.5607 3.1018 5.237 7.0965 9.963 11.1288 13.995.375.375.8837.586 1.4142.586.5304 0 1.0391-.211 1.4142-.586 4.0963-4.096 8.1539-8.909 11.2758-14.245-3.7689-1.537-7.2755-3.51-10.6901-6.4479v7.2789c0 1.105-.8954 2-2 2s-2-.895-2-2z"/><path d="m98.9832 66c2.8098 3.0998 4.7408 6.3803 6.2358 9.8725 4.418-2.9959 8.448-6.7109 12.195-10.4583.781-.781.781-2.0474 0-2.8284-3.868-3.868-8.037-7.7015-12.623-10.7453-1.446 3.581-3.31 6.9965-6.0043 10.1595h7.2133c1.105 0 2 .8954 2 2s-.895 2-2 2z"/></g></svg>